<svg width="53" height="52" xmlns="http://www.w3.org/2000/svg" xmlns:xlink="http://www.w3.org/1999/xlink" xml:space="preserve" overflow="hidden"><defs><linearGradient x1="26.0015" y1="0" x2="26.0015" y2="52" gradientUnits="userSpaceOnUse" spreadMethod="pad" id="fill0"><stop offset="0" stop-color="#FF512F"/><stop offset="1" stop-color="#005DBD"/></linearGradient></defs><g transform="translate(-290 -229)"><path d="M25.9983 0C21.1233 0 16.2483 0.13 11.6983 0.455 8.81049 0.642618 6.08623 1.8617 4.02209 3.89003 1.95796 5.91836 0.691418 8.62088 0.453317 11.505-0.0666839 18.46-0.131684 25.35 0.323317 32.305 0.572483 35.396 1.98659 38.2768 4.27945 40.3643 6.5723 42.4522 9.57266 43.5907 12.6733 43.55L19.4983 43.55 19.4983 35.1 12.6733 35.1C10.6583 35.165 8.90331 33.735 8.70831 31.72 8.31831 25.22 8.38331 18.72 8.83831 12.22 8.96831 10.4 10.3983 9.035 12.2183 8.905 16.6383 8.58 21.3183 8.45 25.9983 8.45 30.6783 8.45 35.3583 8.645 39.7783 8.84 41.5333 8.97 43.0283 10.335 43.1583 12.155 43.6783 18.655 43.6783 25.155 43.2883 31.655 43.0283 33.67 41.3383 35.165 39.3233 35.1L32.4983 35.1 19.4983 43.55 19.4983 52 32.4983 43.55 39.3233 43.55C45.7583 43.615 51.1533 38.675 51.6733 32.305 52.1283 25.415 52.0633 18.46 51.6083 11.57 51.3702 8.68589 50.1037 5.98338 48.0396 3.95503 45.9754 1.9267 43.2512 0.707618 40.3633 0.52 35.7483 0.13 30.8733 0 25.9983 0ZM15.0783 18.98C14.2983 18.98 13.6483 19.63 13.6483 20.41L13.6483 25.48C13.6483 26.195 14.0383 26.845 14.6883 27.17 18.1983 28.86 22.0983 29.77 25.9983 29.9 29.8983 29.77 33.7983 28.86 37.3083 27.17 37.9583 26.845 38.3483 26.195 38.3483 25.48L38.3483 20.41C38.3483 20.215 38.2833 20.085 38.1533 19.955 38.085 19.7766 37.9812 19.6141 37.848 19.4773 37.715 19.3404 37.5553 19.2322 37.3787 19.1592 37.2023 19.0861 37.0127 19.0499 36.8218 19.0526 36.631 19.0553 36.4427 19.097 36.2683 19.175 33.0183 20.605 29.5083 21.385 25.9333 21.45 22.3583 21.385 18.8483 20.54 15.5983 19.11 15.4367 19.0289 15.2591 18.9845 15.0783 18.98Z" fill="url(#fill0)" transform="matrix(1.01923 0 0 1 290 229)"/></g></svg>